<svg xmlns="http://www.w3.org/2000/svg" xmlns:xlink="http://www.w3.org/1999/xlink" width="38" height="39" viewBox="0 0 38 39">
    <defs>
        <path id="prefix__a" d="M0 0.708L37.541 0.708 37.541 38.25 0 38.25z"/>
    </defs>
    <g fill="none" fill-rule="evenodd">
        <g transform="translate(0 .142)">
            <mask id="prefix__b" fill="#fff">
                <use xlink:href="#prefix__a"/>
            </mask>
            <path fill="#12110F" d="M32.174 24.413c0 2.346-1.83 3.97-4.149 3.97-2.345 0-4.174-1.624-4.174-3.97v-9.895c0-2.345 1.83-3.943 4.174-3.943 2.32 0 4.15 1.598 4.15 3.943v9.895zm-9.658 3.633h-1.908l-.334-1.158c-.465.953-1.444 1.494-2.422 1.494-2.243 0-3.66-1.623-3.66-3.866V14.415c0-2.035 1.701-3.84 4.148-3.84 2.448 0 4.046 1.805 4.046 3.84v2.835H19.27v-2.886c0-.49-.31-.8-.877-.8-.54 0-.85.31-.85.8v10.28c0 .491.335.85.876.85.567 0 .902-.359.902-.85v-2.807h-.877v-2.32h4.073v8.53zm-9.435-14.25H9.537v4.098h2.422v2.68H9.537v4.458h3.544v3.014H6.238V10.885h6.843v2.912zM18.771.709C8.402.708 0 9.113 0 19.479c0 10.367 8.403 18.77 18.77 18.77 10.368 0 18.771-8.403 18.771-18.77 0-10.366-8.403-18.771-18.77-18.771z" mask="url(#prefix__b)"/>
        </g>
        <path fill="#12110F" d="M28.025 13.707c-.438 0-.798.283-.798.747v10.307c0 .464.36.747.798.747.439 0 .774-.283.774-.747V14.454c0-.464-.335-.747-.774-.747"/>
    </g>
</svg>
